<?xml version="1.0" encoding="UTF-8" standalone="no"?><svg xmlns="http://www.w3.org/2000/svg" xmlns:xlink="http://www.w3.org/1999/xlink" width="20px" height="20px" viewBox="0 0 20 20" version="1.1"><title>spotify [#162]</title><g id="Page-1" stroke="none" stroke-width="1" fill="none" fill-rule="evenodd"><g id="Dribbble-Light-Preview" transform="translate(-140.000000, -7479.000000)" fill="#000"><g id="icons" transform="translate(56.000000, 160.000000)"><path d="M99.915 7327.865c-3.223-1.914-8.54-2.09-11.618-1.156a.935.935 0 0 1-.543-1.79c3.533-1.073 9.405-.866 13.116 1.337a.935.935 0 0 1-.955 1.609zm-.105 2.835a.78.78 0 0 1-1.073.257c-2.687-1.652-6.785-2.13-9.964-1.165a.78.78 0 0 1-.453-1.492c3.631-1.102 8.146-.568 11.233 1.329a.779.779 0 0 1 .257 1.071zm-1.224 2.723a.623.623 0 0 1-.857.207c-2.348-1.435-5.304-1.759-8.785-.964a.622.622 0 1 1-.277-1.215c3.809-.871 7.076-.496 9.712 1.115.294.18.387.563.207.857zM94 7319c-5.523 0-10 4.477-10 10s4.477 10 10 10 10-4.477 10-10c0-5.522-4.477-9.999-10-9.999V7319z" id="spotify-[#162]"/></g></g></g><metadata><rdf:RDF xmlns:rdf="http://www.w3.org/1999/02/22-rdf-syntax-ns#" xmlns:rdfs="http://www.w3.org/2000/01/rdf-schema#" xmlns:dc="http://purl.org/dc/elements/1.1/"><rdf:Description about="https://iconscout.com/legal#licenses" dc:title="spotify" dc:description="spotify" dc:publisher="Iconscout" dc:date="2017-09-15" dc:format="image/svg+xml" dc:language="en"><dc:creator><rdf:Bag><rdf:li>Alexandru Stoica</rdf:li></rdf:Bag></dc:creator></rdf:Description></rdf:RDF></metadata></svg>